<?xml version="1.0" encoding="utf-8"?>
<!-- Generator: Adobe Illustrator 23.0.3, SVG Export Plug-In . SVG Version: 6.00 Build 0)  -->
<svg version="1.1" id="Layer_1" xmlns="http://www.w3.org/2000/svg" xmlns:xlink="http://www.w3.org/1999/xlink" x="0px" y="0px"
	 viewBox="0 0 200 200" style="enable-background:new 0 0 200 200;" xml:space="preserve">
<g>
	<g>
		<g>
			<path d="M167.6,89.4L167.6,89.4l-2.7-22.7h-11.3l-6.4,34.5h0.4c-2.2,1.5-4,3.6-5,6.2c-0.2-0.5-0.3-0.9-0.6-1.4
				c-1.2-2.4-3-3.9-4.9-4.9c2.1-0.6,4-1.6,5.6-3c2.6-2.2,4.3-4.8,5.4-10.6l3.9-20.9h-8.8l-3.9,20.9c-0.5,2.8-1.2,6.6-5.6,6.6
				c-4.3,0-3.7-4.2-3.2-6.6l3.9-20.9h-8.8l-3.9,20.9c-1,5.1-0.8,7.5,1.5,10.6c0.4,0.6,1,1,1.5,1.4h-7l6.1-32.9h-8.8l-6.4,34.3
				c-2.3-1.3-4.9-2.1-8.1-2.1c-0.1,0-0.2,0-0.4,0c6.1-3,9.4-8.7,10.6-15.1c0.7-3.8,0.6-7.5-1.2-10.7c-3.3-6.4-10.2-6.4-14.1-6.4H84
				L79,93.9l-5.8-27.2h-7L48.1,97.5l4.3-23.1h6.9l4.4-7.7H38l-1.4,7.7h7.1l-4.6,25c-2-0.9-4.2-1.4-6.6-1.4c-0.5,0-1,0.1-1.5,0.1
				c0.2-0.1,0.4-0.2,0.6-0.4c3.1-2.3,4.4-5.8,5-9.1c0.9-5.5-2.4-7.9-6.9-9.3l-2.2-0.7c-1.4-0.5-3.7-1.3-3.4-3.2
				c0.3-1.9,2.6-2.8,4.2-2.8c2.6-0.1,4.8,0.3,6.2,1.7l1.5-6.9c-2.5-1.4-5.2-2.1-7.7-2.1c-6.8,0-12.4,4.5-13.5,11.4
				c-1,6.6,2.4,8,7.7,9.6c1.8,0.5,5.1,1.4,4.7,3.9c-0.4,2.4-2.8,3.4-4.8,3.4c-3,0-5.4-1.6-7.3-3.5L10,97.1c3.1,2.4,7,3.9,11.3,3.9
				c0,0,0.1,0,0.1,0c-5.4,3.1-9.7,8.4-10.8,14.8c-1.8,9.9,4.5,18.1,15,18.1c7.8,0,15.9-4.7,19.8-12.6c0.6,7.2,5.9,13.3,15.1,13.3
				c7.8,0,14.7-4.4,18.6-10.5c1.5,6,6.7,10.7,14.7,10.7c7.4,0,14-4,18-9.7l-1.7,9h12.1c13.1,0,19.2-7.9,21-17.2
				c1.4,1.4,3.6,2.2,6.3,3c1.8,0.5,5.1,1.4,4.7,3.9c-0.4,2.4-2.8,3.4-4.8,3.4c-2.8,0-5-1.5-6.8-3.2c-1.4,3-2.4,4.1-4.6,6.1
				c3,2.2,6.5,4.5,10.5,4.5c3.4,0,7.1-1,10.1-3.2c3.1-2.3,4.4-5.8,5-9.1c0.9-5.5-2.4-7.9-6.9-9.3l-2.1-0.7c-1.5-0.5-3.7-1.2-3.4-3.2
				c0.3-1.9,2.6-2.8,4.2-2.8c2.2,0,4.1,0.9,5.5,2.2l4.6-6.8c-0.3-0.2-0.7-0.3-1-0.5h3.8l12.2-25.9l0.1,0.1l-5.1,25.9h8.1l6.4-34.5
				h-11.4L167.6,89.4z M91.4,74.4h3.8c3.9,0,5.4,1.6,6.1,3.2c0.9,2,0.9,4.4,0.5,6.4c-0.9,4.9-3.6,9.5-10.2,9.5h-3.8L91.4,74.4z
				 M67.7,77.4L67.7,77.4h0.1l1.4,11.8h-7.2L67.7,77.4z M48.3,109.7c-0.8,1.3-1.3,2.6-1.8,3.9H27.2l-1.3,7h10.3
				c-1.6,3.4-4.9,5.6-9.3,5.6c-4.3,0-8.9-3.1-7.5-10.4c1.3-6.8,7-10,11.3-10c3.7,0,5.9,2.1,6.8,4.5h9.9c-0.4-3.5-2.3-6.7-5.2-9H46
				h1.5h8l2.8-5h12l0.4,2.8c-1.1-0.2-2.2-0.3-3.5-0.3C57.5,98.7,50.9,105.2,48.3,109.7z M73.2,116.7c-0.8,4.4-4.9,10.1-11.2,10.1
				c-5.9,0-8.6-4.9-7.6-10.3c0.9-4.9,5.2-10.1,11.3-10.1C72.1,106.4,74.1,112.2,73.2,116.7z M81.9,109.4c-0.9-3.4-2.9-6.3-5.9-8.2
				h1.6h2.9h9.2c0.5,0,1-0.1,1.5-0.1C86.8,103.3,83.6,106.6,81.9,109.4z M106.5,116.9c-0.8,4.4-4.9,10.1-11.2,10.1
				c-5.9,0-8.6-4.9-7.6-10.3c0.9-4.9,5.2-10.1,11.3-10.1C105.4,106.7,107.4,112.4,106.5,116.9z M108.9,101.2h7.3l-1.4,7.4
				C113.8,105.5,111.8,102.9,108.9,101.2z M134.3,116.9c-0.9,4.9-3.6,9.5-10.2,9.5h-3.8l3.5-19h3.8c3.9,0,5.4,1.6,6.1,3.2
				C134.7,112.5,134.7,114.9,134.3,116.9z M155.7,99l4.1-23.6l0.1-0.1l2.5,25C160.2,99.5,157.8,99,155.7,99z"/>
		</g>
	</g>
	<g>
		<g>
			<g>
				<path d="M163.2,109.3c0-3.4,2.7-6.1,6.1-6.1c3.4,0,6.1,2.7,6.1,6.1c0,3.4-2.7,6.1-6.1,6.1C165.9,115.3,163.2,112.6,163.2,109.3z
					 M173.9,109.3c0-2.7-2-4.7-4.6-4.7c-2.7,0-4.6,1.9-4.6,4.7c0,2.7,2,4.6,4.6,4.6C171.9,113.9,173.9,112,173.9,109.3z
					 M172.2,112.3h-1.5l-1.4-2.7h-1v2.7h-1.4V106h3.1c1.5,0,2.5,0.3,2.5,1.9c0,1.2-0.6,1.6-1.7,1.7L172.2,112.3z M169.9,108.7
					c0.7,0,1.1-0.2,1.1-1c0-0.6-0.8-0.6-1.4-0.6h-1.4v1.6H169.9z"/>
			</g>
		</g>
	</g>
</g>
</svg>
