<?xml version="1.0" encoding="utf-8"?>
<!-- Generator: Adobe Illustrator 24.3.0, SVG Export Plug-In . SVG Version: 6.00 Build 0)  -->
<svg version="1.1" id="Layer_1" xmlns="http://www.w3.org/2000/svg" xmlns:xlink="http://www.w3.org/1999/xlink" x="0px" y="0px"
	 viewBox="0 0 512 512" style="enable-background:new 0 0 512 512;" xml:space="preserve">
<g id="XMLID_1_">
	<path id="XMLID_24_" d="M144.62,263.17c-5.19,0-8,3.79-8,11.22c0,8.28,2.95,12.48,8.56,12.48c3.79,0,6.17-1.96,7.57-5.75l1.96,0.84
		c-1.4,5.05-5.19,7.43-11.22,7.43c-4.35,0-8-1.4-10.24-3.79c-2.67-2.67-4.21-5.75-4.21-9.96c0-4.35,1.4-7.57,4.35-10.24
		c2.95-2.95,6.45-4.35,10.8-4.35c2.38,0,5.05,0.56,6.87,1.96c1.4,0.84,2.67,2.38,2.67,3.79s-1.26,2.67-2.67,2.67
		s-2.95-1.26-3.23-3.65C147.57,264.16,146.73,263.17,144.62,263.17z M502.74,257.28v50.22h-3.23l-42.64-54.43v38.86
		c0,3.79,0.14,6.45,0.84,7.43c1.4,2.38,4.35,3.79,8.28,3.79h1.26v2.95h-23.29v-2.95c4.35-0.14,7.43-1.4,8.56-3.79
		c0.14-0.84,0.84-3.65,0.84-7.43v-32.82c0-5.75-0.84-9.26-2.38-10.66l-6.45-1.4h-0.56v-2.95h19.64l35.91,45.03v-32.4
		c0-3.79-1.26-6.45-2.67-8c-1.4-1.4-3.79-1.82-6.17-1.82h-1.26v-2.95H512v2.95h-0.84c-3.65,0.14-5.75,1.4-7.43,3.79
		C503.16,252.37,502.74,254.34,502.74,257.28z M410.02,250.97l-3.79-2.95l-8.28-0.56H388v24.69h6.45c3.65,0,5.19-0.56,6.87-1.4
		c1.26-1.4,1.4-3.65,1.4-7.01v-0.14h3.65v20.76h-3.65v-0.14c0-3.65-0.14-5.75-1.4-7.01c-0.84-0.84-3.23-1.4-6.87-1.4H388v14.59
		c0,5.75,0.56,9.4,1.4,10.8c1.26,1.4,3.65,2.38,8,2.38h3.65c5.75,0,10.24-1.82,12.62-5.19c2.38-2.95,3.79-6.87,5.19-11.22h2.95
		l-0.84,19.36h-53.44v-2.95h1.4c3.65,0,5.61-0.14,6.45-1.82c0.84-1.4,1.4-5.05,1.4-9.96v-32.82c0-5.05-0.56-8.56-1.4-9.96
		s-2.95-1.82-5.75-1.82h-0.84v-2.95h47.27l1.26,15.57h-2.95C413.11,256.16,411.42,253.07,410.02,250.97z M326.42,263.17h2.95v20.76
		h-2.95v-0.14c0-3.65-0.14-5.75-1.82-7.01c-1.26-0.84-3.65-1.4-7.01-1.4h-6.17v14.59c0,5.75,0.14,9.4,1.4,10.8
		c0.84,1.4,3.23,2.38,7.57,2.38h3.65c5.75,0,10.24-1.82,12.62-5.19c2.67-2.95,4.21-6.87,5.61-11.22h2.95l-1.26,19.36h-53.3v-2.95
		h1.4c3.23,0,5.19-0.14,6.17-1.82c1.26-1.4,1.4-5.05,1.4-9.96v-32.68c0-5.05-0.14-8.56-1.4-9.96c-0.84-1.4-2.95-1.82-6.17-1.82
		h-0.56v-2.95h47.69l0.84,15.57h-2.95c-0.84-3.65-2.38-6.45-3.79-8.84c-1.4-1.4-2.95-2.38-4.35-2.95l-8-0.56h-9.68v24.69h6.17
		c3.65,0,5.75-0.56,7.01-1.4c1.4-1.4,1.82-3.65,1.82-7.01v-0.14h0.14V263.17z M209.85,258.69c0-5.61-0.56-8.56-1.4-9.96
		c-1.26-1.4-3.65-1.82-7.01-1.82h-0.84v-2.95h30.02v2.95h-1.26c-3.23,0-5.75,0.14-6.87,1.82c-0.84,1.4-1.4,4.35-1.4,9.96v20.76
		c0,8.56,0.84,14.45,2.38,16.83c2.67,4.35,7.43,6.87,14.59,6.87c4.21,0,7.43-0.84,10.8-2.95c3.65-1.82,5.19-4.35,6.87-7.57
		c0.56-1.96,1.26-6.45,1.26-13.05v-21.46c0-3.79-0.56-6.87-1.96-8.28c-0.84-1.4-3.65-2.67-6.87-2.95h-0.56v-2.95h22.02v2.95h-0.84
		l-5.05,1.82c-2.38,1.4-3.65,4.21-3.65,8v27.07c0,8.28-2.38,14.03-6.87,17.96c-4.35,4.21-10.8,5.75-18.38,5.75
		c-9.4,0-16.83-2.95-21.18-8.84c-3.65-3.79-4.35-8.84-3.79-14.59L209.85,258.69L209.85,258.69z M143.22,246.48
		c5.05,0,9.4,1.4,13.19,4.35c5.19,4.35,8,12.48,8,24.41c0,8-1.4,14.45-4.21,19.08l-3.23,4.35c-3.65,3.65-8,5.61-13.19,5.61
		c-7.01,0-11.78-2.67-15.15-7.01c-3.79-5.75-5.75-13.61-5.75-23c0-8,1.4-14.03,4.35-19.08C130.6,249.29,135.79,246.48,143.22,246.48
		z M109.27,274.96c0,12.62,5.05,22.02,15.15,27.77c5.19,3.23,11.22,4.63,17.96,4.63l3.65-0.14l-13.75,7.57
		c-3.23,1.4-4.63,2.95-4.63,4.35c0,1.4,0.84,1.96,2.38,1.96l3.79-1.96c2.67-2.38,5.61-3.79,8.56-3.79c4.35,0,9.68,1.96,15.57,6.45
		l6.45,4.35c4.35,2.38,8.28,3.23,12.62,3.23c10.8,0,16.83-5.19,18.24-15.57h-3.23c-1.4,4.35-5.05,6.45-10.24,6.45
		c-4.21,0-8.84-1.26-14.59-3.65c-8.84-3.65-16.27-5.05-22.02-5.05l-1.4,0.56l11.22-6.45c7.43-2.38,12.62-6.17,16.83-11.78
		c4.35-5.19,6.17-11.78,6.17-19.08c0-9.26-3.23-16.97-9.68-23.43c-6.45-5.75-14.03-8.84-24.41-8.84c-10.24,0-18.8,2.95-24.97,8.84
		C112.36,257.56,109.27,265.56,109.27,274.96z M63.82,252.93l-23.99,53.3h-2.38l-24.97-53.3v35.21c0,5.19,0.56,8.84,1.96,10.66
		c0.84,2.95,3.23,4.35,7.43,4.35h0.14v2.95H0v-2.95h0.56c3.65,0,5.75-1.4,7.43-4.35c0.84-1.82,1.4-5.75,1.4-11.22v-28.9
		c0-5.61-0.56-8.56-1.4-9.96c-0.84-1.4-2.95-1.82-6.45-1.82H0v-2.95h21.18l21.46,47.83l21.88-47.83h20.76v2.95h-1.82
		c-3.65,0-5.75,0.84-7.01,2.38c-0.84,1.4-1.4,4.35-1.4,9.4v32.68c0,5.05,0.56,8.56,1.96,9.96c0.56,1.4,2.38,1.82,5.75,1.82h2.38
		v2.95H54.29v-2.95h1.4c3.65,0,5.61-0.14,6.45-1.82c0.84-1.4,1.4-5.05,1.4-9.96v-38.44L63.82,252.93L63.82,252.93z M491.52,194.44
		c0,5.75-1.96,8.84-6.45,9.4l-7.43,0.56v-18.8h2.95c4.21,0,7.01,0.56,8.56,1.96C490.54,189.11,491.52,191.21,491.52,194.44z
		 M510.04,227.26v-2.38c-3.23,0-7.43-2.95-11.78-8.84c-3.79-5.75-6.87-9.4-9.26-10.8c7.57-1.4,11.78-5.05,11.78-10.8
		c0-3.79-1.96-6.87-5.75-8.84c-2.95-1.82-8-2.95-14.59-2.95l-16.83,1.26v1.82h0.56c2.38,0,4.35,0.56,4.63,1.26l1.26,6.87v22.86
		l-1.26,7.01c-0.14,0.84-1.82,1.4-4.35,1.4h-1.4v2.38h22.02v-2.38h-1.82c-2.67,0-4.21-0.56-4.35-1.4c-0.56-1.26-1.26-3.65-1.26-7.01
		v-9.96h0.56c2.38,0,3.79,0.56,5.05,0.84l6.17,8.56c3.65,5.75,6.45,9.68,8.56,11.22h12.06V227.26z M447.47,213.52l-0.56,13.75
		h-37.59v-2.38h0.84c2.67,0,4.21-0.56,4.35-1.4c0.56-1.26,1.26-3.65,1.26-7.01v-23c0-3.65-0.56-5.19-1.26-6.45
		c-0.14-0.84-1.82-1.4-3.79-1.4h-0.56v-1.82h33.39l0.14,10.66h-1.82c-0.56-2.38-1.4-4.35-2.67-5.75c-1.4-1.82-4.63-2.95-9.26-2.95
		h-6.45v17.39h4.35c2.38,0,3.79-0.56,4.35-1.26c0.84-0.14,1.4-1.82,1.4-4.35v-0.14h2.38v14.59h-2.38v-0.56
		c0-2.38-0.56-3.79-0.84-5.05l-5.05-0.84h-4.35v10.8c0,3.79,0.56,6.17,0.84,7.43c0.56,0.84,2.67,1.4,5.61,1.4h2.38
		c4.35,0,7.43-1.26,8.84-3.65c1.4-2.38,2.95-5.05,3.79-8L447.47,213.52L447.47,213.52z M375.37,187.71c5.19,2.95,8,9.4,8,18.38
		c0,7.01-1.4,12.48-5.05,15.85c-2.38,1.82-6.45,2.95-11.78,2.95c-2.38,0-3.79-0.56-4.35-1.4c-0.56-1.4-0.84-4.21-0.84-8.56v-29.18
		l3.79-0.14C369.48,185.18,372.99,186.3,375.37,187.71z M382.81,187.01c-5.05-2.38-11.78-3.79-21.18-3.79h-8.84l-6.17,0.56v1.82
		h0.84c2.38,0,3.79,0.56,5.05,1.4l0.14,7.01v22.44l-0.14,7.01c-1.26,0.84-2.67,1.4-4.35,1.4h-1.4v2.38h17.67l14.59-1.4
		c9.26-2.95,13.61-9.68,13.61-20.06C392.49,197.11,389.26,190.65,382.81,187.01z M330.77,185.6c-2.38,0.56-4.35,1.4-5.19,2.95
		l-0.56,4.21v35.63h-1.82l-30.58-38.29v27.07c0,2.95,0,4.35,0.56,5.05c1.4,1.82,3.65,2.95,5.75,2.95h0.84v2.38h-16.41v-2.38h0.14
		c2.95,0,5.05-1.26,5.75-2.95l0.56-5.05v-23.29c0-4.21-0.56-6.45-1.96-7.43l-3.79-1.26h-0.56v-1.82h13.19l25.67,31.28v-22.16
		c0-2.95-0.56-5.05-1.4-5.61l-5.05-1.4h-0.14v-1.82h15.57v1.82h-0.56V185.6z M252.49,210.29h-13.75l6.87-16.83L252.49,210.29z
		 M270.45,224.88c-1.4,0-2.95-0.56-3.23-1.4l-2.95-5.75l-14.87-35.07h-1.96l-13.75,33.81l-3.23,6.45c-1.26,0.84-2.67,1.4-4.21,1.96
		h-0.14v2.38h13.61v-2.38h-0.14c-2.95,0-4.35-1.26-4.35-3.65l1.82-6.45l1.26-2.38h15.57l2.95,6.45l0.84,3.79
		c0,1.4-1.4,1.96-4.35,1.96h-0.14v2.38h18.38v-2.38h-0.84v0.28H270.45z M215.32,227.26h-23.43v-2.38h0.56
		c3.23,0,5.19-0.56,5.19-1.96l-2.95-5.19l-7.43-8.84l-6.87,7.57l-2.95,5.61c0,1.82,1.4,2.95,3.79,2.95h0.56v2.38h-17.67v-2.38h0.14
		c4.21-0.56,8.56-3.65,13.05-8.84l8.28-9.4l-11.22-13.19l-5.61-6.87c-0.84-0.56-2.38-1.26-4.35-1.26h-0.14v-1.82h20.76v1.82h-0.84
		c-2.38,0-3.65,0.56-3.65,1.96l2.67,3.79l7.43,9.4l7.43-8.84c1.4-1.96,2.38-3.65,2.38-3.79c0-1.4-1.4-2.67-4.35-2.67h-0.56v-1.82
		h16.83v1.82h-0.56c-2.38,0-4.35,0.56-5.75,1.96l-6.17,6.45l-7.01,8.28l10.8,13.75l6.45,7.43l5.19,1.4v2.38h0V227.26z
		 M138.73,197.11v14.59h-2.38v-0.56c0-2.38-0.56-3.79-1.26-5.05l-4.63-0.84h-4.35v10.8c0,3.79,0.14,6.17,0.84,7.43
		c0.56,0.84,2.38,1.4,5.19,1.4h2.67c4.35,0,7.43-1.26,9.26-3.65c1.4-2.38,2.95-5.05,3.65-8h2.38l-0.84,13.75H111.8v-2.38h0.56
		c2.38,0,3.79-0.56,5.05-1.4c0.14-1.26,0.14-3.65,0.14-7.01v-22.86c0-3.65,0-5.19-0.14-6.45c-1.26-0.84-2.67-1.4-4.35-1.4h-0.56
		v-1.82h32.68l0.84,10.66h-1.96c-0.14-2.95-1.4-4.63-2.38-5.75c-1.4-1.82-4.35-2.95-8.84-2.95h-6.59V203h4.35
		c2.38,0,3.79-0.56,4.63-1.26c0.56-0.14,1.26-1.82,1.26-4.35v-0.14h2.38v-0.14H138.73z M79.11,185.6c-2.67,0-4.35,0.56-5.05,1.26
		c-0.56,1.4-0.84,3.23-0.84,6.87v23.99c0,3.23,0.14,5.19,0.84,5.75c0.56,0.84,2.38,1.4,5.75,1.4h2.38c4.21,0,7.01-1.26,8.84-3.65
		c1.4-1.4,2.67-4.35,3.65-8h2.38l-0.14,13.75H58.49v-2.38h1.54c2.38,0,3.79-0.56,4.35-1.4c0.14-1.26,0.84-3.65,0.84-7.01v-22.86
		c0-3.65-0.56-5.75-0.84-6.87c-0.56-0.56-2.67-1.26-5.05-1.26h-0.84v-1.82h22.16v1.82h-1.54V185.6z M27.63,210.29H13.19l7.01-16.83
		L27.63,210.29z M22.02,182.66L8.42,216.46c-1.96,5.05-4.35,8-7.43,8.56H0.42v2.38h13.75v-2.38h-0.56c-2.95,0-4.35-1.26-4.35-3.65
		l1.96-6.45l0.84-2.38h15.57l4.21,10.24c0,1.4-1.4,1.96-4.35,1.96h-0.56v2.38h18.38v-2.38h-0.14c-1.4,0-2.95-0.56-3.65-1.4
		l-2.95-5.75l-14.45-35.07h-2.1V182.66z"/>
</g>
</svg>
