<?xml version="1.0" encoding="utf-8"?>
<!-- Generator: Adobe Illustrator 24.3.0, SVG Export Plug-In . SVG Version: 6.00 Build 0)  -->
<svg version="1.1" id="Layer_1" xmlns="http://www.w3.org/2000/svg" xmlns:xlink="http://www.w3.org/1999/xlink" x="0px" y="0px"
	 viewBox="0 0 512 512" style="enable-background:new 0 0 512 512;" xml:space="preserve">
<style type="text/css">
	.st0{fill:#000066;}
</style>
<g id="XMLID_1_">
	<path id="XMLID_5_" class="st0" d="M51.54,290.82c-9.54,0-14.03-7.3-11.65-15.72c4.91-17.54,36.48-43.36,58.09-43.36
		c15.71,0,14.45,14.03,5.33,26.1l-5.05,5.61C79.89,281.28,63.05,290.82,51.54,290.82 M128.58,172.81
		c-27.5,0-57.67,16.84-76.75,32.69l1.54,2.1c29.47-20.63,70.44-34.1,81.66-13.89c5.89,10.66-4.21,32.13-18.38,49.11
		c3.37-7.44,1.12-21.89-18.66-21.89c-32.97,0-97.94,43.78-97.94,88.54c0,17.96,12.49,29.61,32.97,29.61
		c54.86,0,129.23-89.94,129.23-134.98C161.97,188.25,152.85,172.81,128.58,172.81"/>
	<path id="XMLID_8_" class="st0" d="M199.15,290.82c-3.23,0-5.89-1.12-7.58-3.09c-1.68-2.1-2.25-5.19-1.4-8.28
		c1.82-6.73,9.12-12.07,16.56-12.07h17.68l-6.31,23.57h-18.94V290.82z M249.81,220.38c-5.05-6.17-13.19-8.98-19.08-8.98h-32.13
		l-5.47,20.35h30.31l2.95,0.28c0,0,2.81,0.28,4.35,2.39c1.26,1.68,1.4,4.35,0.56,7.58l-1.4,5.33H210.8
		c-16.42,0-39.29,11.79-44.34,30.73c-2.53,9.54-0.28,17.68,4.63,23.71c4.91,6.03,14.17,9.26,24.13,9.26h17.68l0,0h22.45l10.52-39.29
		l7.72-28.9C256.4,231.61,253.17,224.45,249.81,220.38"/>
	<path id="XMLID_9_" class="st0" d="M470.1,211.4c-8.7,0-16.7,2.53-23.29,7.44s-10.24,10.8-12.49,18.94
		c-4.77,17.54,9.12,26.1,20.2,32.13c8,4.35,14.87,8,13.33,13.61c-1.12,3.93-2.81,7.44-12.63,7.44h-29.89l-5.47,20.35h33.11
		c8.84,0,17.12-1.82,23.71-6.88c6.59-5.05,10.38-12.21,12.63-20.91c2.25-8.28,0.7-16.14-4.63-22.03
		c-4.35-4.91-10.8-8.42-16.42-11.37c-7.16-3.93-13.89-7.58-12.77-11.93c0.7-2.67,3.37-6.45,9.12-6.45h29.18l5.47-20.35H470.1z"/>
	<path id="XMLID_10_" class="st0" d="M296.39,211.4c-8.7,0-16.7,2.53-23.29,7.44s-10.24,10.8-12.49,18.94
		c-4.77,17.54,9.12,26.1,20.2,32.13c8,4.35,14.87,8,13.33,13.61c-1.12,3.93-2.81,7.44-12.63,7.44h-29.89l-5.47,20.35h33.11
		c8.84,0,17.12-1.82,23.71-6.88c6.59-5.05,10.38-12.21,12.63-20.91c2.24-8.28,0.7-16.14-4.63-22.03
		c-4.35-4.91-10.8-8.42-16.42-11.37c-7.16-3.93-13.89-7.58-12.77-11.93c0.7-2.67,3.37-6.45,9.12-6.45h29.04l5.47-20.35H296.39z"/>
	<polygon id="XMLID_11_" class="st0" points="341.57,211.4 315.61,311.16 337.5,311.16 363.46,211.4 	"/>
	<path id="XMLID_12_" class="st0" d="M421.97,211.4c-38.73,0.14-58.93,25.96-65.39,49.81c-7.58,28.48,7.58,49.81,35.22,49.81h18.52
		l5.47-20.35h-18.52c-10.38,0-24.55-8.14-18.94-29.61c4.63-16.98,21.19-29.61,39.43-29.61h11.79l5.47-20.35L421.97,211.4
		L421.97,211.4z"/>
	<path id="XMLID_17_" class="st0" d="M498.02,306.53h1.96v-4.35h1.54c0.98,0,1.68,0.14,2.1,0.28c0.7,0.42,0.98,1.26,0.98,2.53v0.84
		v0.42v0.14v0.14h1.82v-0.14c0-0.14,0-0.28-0.14-0.56c0-0.28,0-0.56,0-0.84v-0.84c0-0.56-0.14-1.12-0.56-1.68
		c-0.42-0.56-0.98-0.98-1.82-1.12c0.7-0.14,1.26-0.28,1.54-0.56c0.7-0.42,1.12-1.12,1.12-2.1c0-1.4-0.56-2.24-1.68-2.81
		c-0.7-0.28-1.68-0.42-2.95-0.42h-3.79L498.02,306.53L498.02,306.53z M503.49,300.64c-0.42,0.14-0.98,0.28-1.82,0.28h-1.68v-3.93
		h1.68c1.12,0,1.82,0.14,2.39,0.42c0.56,0.28,0.7,0.84,0.7,1.54C504.61,299.8,504.33,300.36,503.49,300.64 M509.1,294.04
		c-1.96-1.96-4.35-2.95-7.02-2.95c-2.81,0-5.05,0.98-7.02,2.95c-1.96,1.96-2.95,4.35-2.95,7.02c0,2.81,0.98,5.19,2.95,7.02
		c1.96,1.96,4.35,2.95,7.02,2.95c2.81,0,5.05-0.98,7.02-2.95c1.96-1.96,2.95-4.35,2.95-7.02S511.07,296.01,509.1,294.04
		 M508.12,295.03c1.68,1.68,2.53,3.65,2.53,6.03c0,2.39-0.84,4.49-2.53,6.17c-1.68,1.68-3.65,2.53-6.03,2.53
		c-2.39,0-4.35-0.84-6.03-2.53c-1.68-1.68-2.53-3.79-2.53-6.17c0-2.39,0.84-4.35,2.53-6.03s3.65-2.53,6.03-2.53
		S506.44,293.34,508.12,295.03"/>
</g>
</svg>
