<?xml version="1.0" encoding="utf-8"?>
<!-- Generator: Adobe Illustrator 24.3.0, SVG Export Plug-In . SVG Version: 6.00 Build 0)  -->
<svg version="1.1" id="Layer_1" xmlns="http://www.w3.org/2000/svg" xmlns:xlink="http://www.w3.org/1999/xlink" x="0px" y="0px"
	 viewBox="0 0 512 512" style="enable-background:new 0 0 512 512;" xml:space="preserve">
<style type="text/css">
	.st0{fill-rule:evenodd;clip-rule:evenodd;}
</style>
<g id="XMLID_1_">
	<path id="XMLID_2_" class="st0" d="M0,272.81h6.73v-34.38H0v-1.46c8.19,0,16.09,0,24.28,0c5.12,0,11.26,0.15,16.09,2.05
		c3.22,1.46,4.97,4.39,4.97,7.17s-1.76,4.39-4.39,6.14c-1.46,1.02-2.19,1.17-4.39,1.76c2.93,0.44,4.97,1.02,7.75,2.63
		c2.93,2.05,4.24,4.83,4.24,7.61c0,3.22-2.19,6.14-6.14,7.61c-6,2.19-12.87,2.34-19.31,2.34H0V272.81L0,272.81z M18.29,272.81h4.97
		c4.24,0,7.61-0.73,10.09-1.61c2.19-1.17,4.39-3.22,4.39-7.02c0-4.39-1.17-7.31-6-8.92c-2.34-0.59-13.31-0.44-13.46-0.44
		L18.29,272.81L18.29,272.81z M18.29,253.36c5.12,0,10.68,0.15,12.87-0.59c3.22-1.46,4.39-2.78,4.39-6.73
		c-0.15-3.36-1.46-5.12-3.36-6.14c-2.34-1.17-6.14-1.46-10.09-1.46h-3.8V253.36L18.29,253.36z M195.58,272.81h6.73v-34.38h-6.73
		v-1.46c8.19,0,16.24,0,24.28,0c5.12,0,11.26,0.15,16.09,2.05c3.36,1.46,4.97,4.39,4.97,7.17s-1.61,4.39-4.39,6.14
		c-1.46,1.02-2.19,1.17-4.39,1.76c2.93,0.44,4.97,1.02,7.9,2.63c2.78,2.05,3.95,4.83,3.95,7.61c0,3.22-2.19,6.14-6,7.61
		c-6,2.19-13.17,2.34-19.46,2.34h-23.11v-1.46H195.58z M214.16,272.81h4.83c4.39,0,7.61-0.73,10.09-1.61
		c2.34-1.17,4.39-3.22,4.39-7.02c0-4.39-1.02-7.31-6-8.92c-2.34-0.59-13.31-0.44-13.31-0.44L214.16,272.81L214.16,272.81z
		 M214.16,253.36c5.12,0,10.53,0.15,12.73-0.59c3.22-1.46,4.39-2.78,4.39-6.73c0-3.36-1.46-5.12-3.36-6.14
		c-2.34-1.17-6.14-1.46-9.95-1.46h-3.8L214.16,253.36L214.16,253.36z M67.15,264.62v-26.19h-7.75v-1.46h25.6v1.46h-7.46v26.04
		c0,2.63,1.17,4.24,3.36,5.71c2.05,1.76,4.53,2.63,9.51,2.63c5.71,0,9.95-1.17,12.29-3.36c2.63-2.05,3.8-4.53,3.51-7.17v-23.84
		h-7.31v-1.46h17.85v1.46h-7.61v23.99c0,3.51-1.61,7.02-4.97,9.22c-3.51,2.19-7.61,3.36-14.19,3.36c-6.14,0-13.31-0.73-17.26-2.63
		c-3.8-1.61-5.71-4.24-5.71-7.61v-0.15H67.15z M135.02,272.81v-34.38h-7.61v-1.46h28.67c6.14,0.15,9.36,0,13.75,1.61
		c2.93,1.17,4.97,3.51,4.97,7.17c0,7.17-6.58,7.9-11.12,8.92c3.95,0.15,6.14,1.02,8.78,2.05c2.63,1.46,3.8,3.51,4.39,4.97
		c0.59,2.05,0.44,4.39,0.44,6.29c0.44,3.51,2.19,5.12,5.56,4.83c1.02-0.15,1.61-0.59,2.34-1.17l1.02,1.61
		c-2.05,1.46-4.39,2.05-6.58,1.76c-3.8,0-6.73-0.59-9.22-2.05c-2.34-1.46-3.8-3.36-4.39-6.14c-0.44-2.34-0.15-4.53-1.02-7.02
		c-1.46-3.51-6.29-4.39-9.51-4.39h-9.22v17.26h7.75v1.46h-27.06v-1.46h8.05V272.81z M146.29,253.65h9.95c4.83,0,7.75-2.05,7.75-7.9
		c0-4.83-3.95-7.31-8.19-7.31h-9.51V253.65L146.29,253.65z M397.9,272.81v-34.38h-7.61v-1.46h28.67c6.14,0.15,9.36,0,13.46,1.61
		c3.22,1.17,5.12,3.51,5.12,7.17c0,7.17-6.58,7.9-11.26,8.92c4.24,0.15,6.29,1.02,8.78,2.05c2.78,1.46,3.95,3.51,4.39,4.97
		c0.73,2.05,0.59,4.39,0.59,6.29c0.15,3.51,2.19,5.12,5.56,4.83c1.02-0.15,1.61-0.59,2.19-1.17l1.02,1.61
		c-1.76,1.46-4.24,2.05-6.58,1.76c-3.51,0-6.58-0.59-8.92-2.05s-3.95-3.36-4.39-6.14c-0.44-2.34-0.15-4.53-1.17-7.02
		c-1.17-3.51-6.14-4.39-9.51-4.39h-8.92v17.26h7.75v1.46H390v-1.46h7.9V272.81z M409.16,253.65h9.8c4.83,0,7.9-2.05,7.9-7.9
		c0-4.83-3.95-7.31-8.34-7.31h-9.36V253.65L409.16,253.65z M330.02,272.81v-34.38h-7.61v-1.46h28.67c6.29,0.15,9.36,0,13.75,1.61
		c2.93,1.17,5.12,3.51,5.12,7.17c0,7.17-6.58,7.9-11.26,8.92c3.95,0.15,6.14,1.02,8.78,2.05c2.63,1.46,3.8,3.51,4.39,4.97
		c0.73,2.05,0.44,4.39,0.44,6.29c0.44,3.51,2.34,5.12,5.56,4.83c1.02-0.15,1.61-0.59,2.34-1.17l1.02,1.61
		c-1.76,1.46-4.39,2.05-6.58,1.76c-3.8,0-6.73-0.59-9.22-2.05c-2.34-1.46-3.8-3.36-4.39-6.14c-0.44-2.34-0.15-4.53-1.02-7.02
		c-1.46-3.51-6.29-4.39-9.51-4.39h-9.22v17.26h7.9v1.46h-27.21v-1.46h8.05V272.81z M341.43,253.65h9.95c4.83,0,7.75-2.05,7.75-7.9
		c0-4.83-3.95-7.31-8.19-7.31h-9.51L341.43,253.65L341.43,253.65z M257.02,272.81h7.61v-34.38h-7.61v-1.46h47.25v11.12h-1.76
		c-0.73-2.93-2.78-6.73-5.12-8.34c-1.61-1.02-4.24-1.46-8.48-1.46h-12.73v15.65c2.93,0,7.02,0.15,9.51-1.02
		c2.05-1.02,3.36-3.22,3.8-5.56h2.05v14.92h-2.05c-0.44-2.78-2.05-4.53-3.95-5.56c-2.05-0.73-5.71-0.73-9.36-0.73v16.68h14.34
		c6.14,0,8.34-0.73,10.68-2.19c2.19-1.61,4.39-5.56,4.97-9.22h1.61v12.73h-50.47v-1.17H257.02z M467.53,272.81h8.78v-16.09
		l-17.55-18.29h-7.31v-1.46h28.67v1.46h-8.78l14.48,16.24l15.07-16.24h-10.09v-1.46H512v1.46h-7.9l-16.68,18.29v16.09h8.78v1.46
		h-28.67V272.81L467.53,272.81z"/>
</g>
</svg>
