<?xml version="1.0" encoding="utf-8"?>
<!-- Generator: Adobe Illustrator 19.0.0, SVG Export Plug-In . SVG Version: 6.00 Build 0)  -->
<svg version="1.1" id="Layer_1" xmlns="http://www.w3.org/2000/svg" xmlns:xlink="http://www.w3.org/1999/xlink" x="0px" y="0px"
	 viewBox="0 0 500 500" style="enable-background:new 0 0 500 500;" xml:space="preserve">
<style type="text/css">
	.st0{fill:#E6EB07;}
</style>
<g id="layer1" transform="translate(618.75,-431.879)">
	<path id="path91" class="st0" d="M-494.4,663.6l19.7,8.5c0,0-10,4.1-28.1,6.8c0,0,15,6.9,27.7,20.8h-23.4c0,0-3.1-6-10.1-12.8
		c-4.1-4-9.7-7.9-16.3-11.5c-3.8-2.1-7.7-4-12.2-5.9c0,0-4.5-1.9-9-3.5c-3-1.1-6-2-7.7-2.5c0,0,25.2,6.3,40,5.4
		C-513.7,669-504.4,669.5-494.4,663.6"/>
	<path id="path93" d="M-212.2,685.2h12l-5.2-12.3h-1.7L-212.2,685.2z M-228.5,700.1l15.3-36.1h14.4l15.1,36.1h-10.2l-2.5-5.8
		l-19.7,0l-2.5,5.8H-228.5z M-388,685.3h12l-5.2-12.3h-1.7L-388,685.3z M-404.3,700.2l15.3-36.1h14.3l15.1,36.1h-10.1l-2.5-5.8
		l-19.7,0.1l-2.5,5.8H-404.3z M-258.9,681.9h14.9c1.4,0,2.6-1.1,2.6-2.6l0-3.3c0-1.4-1.1-2.5-2.5-2.5l-14.9,0V681.9z M-452.1,690.7
		h14.7c3,0,5.4-2.4,5.4-5.4v-6.4c0-3-2.4-5.4-5.4-5.4h-14.7V690.7z M-461.3,664h26.4c6.7,0,12.1,5.4,12.1,12.1v12.1
		c0,6.7-5.4,12-12,12l-26.4-0.1V664z M-347.2,690.7h14.7c3,0,5.4-2.4,5.4-5.4v-6.4c0-3-2.4-5.4-5.4-5.4h-14.7V690.7z M-282,678.9
		c0-3-2.4-5.4-5.4-5.4h-10.9c-3,0-5.4,2.4-5.4,5.4v6.4c0,3,2.4,5.4,5.4,5.4h10.9c3,0,5.4-2.4,5.4-5.4V678.9z M-356.4,664h26.4
		c6.7,0,12.1,5.4,12.1,12.1v12.1c0,6.7-5.4,12-12,12l-26.4-0.1V664z M-244,664c6.7,0,12.1,5.4,12.1,12.1v5.9c0,2.1-1.2,3.8-3,4.5
		l0.1,0c1.8,0.7,2.8,2.4,2.8,4.4v9.2h-9.5v-5.7c0,0,0.3-3.6-2.8-3.7h-14.6v9.4h-9.1V664H-244z M-272.6,688c0,6.7-5.4,12.1-12.1,12.1
		l-16.2,0c-6.7,0-12.1-5.4-12.1-12l0-12.1c0-6.7,5.4-12,12-12h16.4c6.7,0,11.9,5.4,11.9,12V688z M-417.4,664h9.8l0,36h-9.8
		L-417.4,664"/>
</g>
</svg>
