<?xml version="1.0" encoding="utf-8"?>
<!-- Generator: Adobe Illustrator 19.0.0, SVG Export Plug-In . SVG Version: 6.00 Build 0)  -->
<svg version="1.1" id="Layer_1" xmlns="http://www.w3.org/2000/svg" xmlns:xlink="http://www.w3.org/1999/xlink" x="0px" y="0px"
	 viewBox="0 0 500 500" style="enable-background:new 0 0 500 500;" xml:space="preserve">
<style type="text/css">
	.st0{fill:#211E1E;}
</style>
<g id="XMLID_15_">
	<path id="XMLID_17_" class="st0" d="M422,223.1h13c-1.4,1.1-2.3,2.5-2.3,4.4v44.9c0,1.9,0.9,3.2,2.3,4.3h-13
		c1.4-1.1,2.3-2.5,2.3-4.3v-44.9C424.2,225.6,423.4,224.2,422,223.1"/>
	<path id="XMLID_21_" class="st0" d="M120,242.4c-2.1-4.6-4.5-9.1-8.4-12.4c-4.2-3.5-9.5-5.7-15-5.7c-14.6,0-21.1,13.2-21.1,26.1
		c0,12.5,6.2,25.2,20.3,25.2c5.7,0,11.3-2.5,14.9-7v-10.1c0-2.8-0.9-4.5-3-6.1h14.9c-1.6,1.8-2.6,3.6-2.6,6.1v10.1
		c-6.8,6.3-15.3,10.2-24.7,10.2c-16.6,0-30.2-12.2-30.2-29.3c0-16.9,13.4-28.5,29.8-28.5c10.2,0,18.5,3.8,25.1,11.3V242.4"/>
	<path id="XMLID_22_" class="st0" d="M156.5,223.1h14c-1.9,1.4-2.6,3-2.6,5.3v32.7c0,9,10.5,13.4,18.3,13.4
		c7.6,0,17.5-4.4,17.5-13.2v-32.9c0-2.2-0.5-3.7-2-5.3h7.6c-1.6,1.6-2.1,3.2-2.1,5.3v32.9c0,11.8-14,16.4-23.6,16.4
		c-10,0-24.5-4.4-24.5-16.6v-32.7C159.1,226.2,158.2,224.5,156.5,223.1"/>
	<path id="XMLID_23_" class="st0" d="M297.1,242.5c-1.9-4.7-4.1-8.9-7.9-12.3c-4.1-3.7-9.2-6-14.8-6c-14.4,0-21.8,12.6-21.8,25.7
		c0,13.2,7.7,25.6,21.9,25.6c10.6,0,18.2-7.5,22.6-16.5v9.7c-6.6,6.5-15.1,9.9-24.4,9.9c-17.2,0-30.2-11.2-30.2-29
		c0-17.3,12.4-28.7,29.3-28.7c9.4,0,18.5,3.2,25.3,9.7V242.5"/>
	<path id="XMLID_24_" class="st0" d="M387.6,242.5c-1.9-4.7-4.1-8.9-7.9-12.3c-4.2-3.7-9.2-6-14.8-6c-14.4,0-21.8,12.6-21.8,25.7
		c0,13.2,7.6,25.6,21.9,25.6c10.6,0,18.2-7.5,22.6-16.5v9.7c-6.6,6.5-15.1,9.9-24.4,9.9c-17.3,0-30.2-11.2-30.2-29
		c0-17.3,12.4-28.7,29.4-28.7c9.4,0,18.5,3.2,25.3,9.7V242.5"/>
</g>
</svg>
