<svg xmlns="http://www.w3.org/2000/svg" width="255" height="120" xml:space="preserve"><g style="fill:#ed2438;fill-opacity:1"><path style="fill:#ed2438;fill-opacity:1" d="m245.557 422.518-8.004 31.689h-8.713l7.998-31.689zM267.89 434.555l-2.035 7.605h-17.641l2.052-7.605zM335.279 422.518l-8.008 31.689h-8.706l7.996-31.689zM201.611 455.316c-12.19 0-19.654-2.98-19.654-2.98l7.507-29.818h8.683l-5.938 23.938s5.586 1.408 10.62 1.408c4.982 0 11.573-1.49 11.573-1.49l1.456-5.447h8.721l-3.117 11.598c0-.001-7.779 2.791-19.851 2.791M301.217 454.207l2.501-9.875c-1.347-1.606-4.846-5.632-7.687-7.772-3.812-2.908-8.995-5.461-10.376-6.107l-5.985 23.755h-8.715l8.004-31.689h8.709c3.158 1.413 8.104 3.956 13.849 8.286a67.68 67.68 0 0 1 4.651 3.819l3.053-12.105h8.715l-7.995 31.689h-8.724zM335.896 454.164l7.982-31.646h8.822c3.16 1.426 8.06 3.961 13.755 8.247a72.287 72.287 0 0 1 4.65 3.82l3.05-12.067h8.71l-7.982 31.646h-8.719l2.492-9.866c-1.345-1.606-4.852-5.636-7.695-7.777-3.807-2.899-8.984-5.456-10.351-6.111l-6.004 23.755h-8.71zM422.871 452.618s-7.687 2.702-19.596 2.702c-11.97-.038-19.434-2.929-19.434-2.929l6.997-27.904s7.571-2.801 19.661-2.801c12.123 0 19.369 2.989 19.369 2.989l-1.979 7.353s-7.589-2.86-18.62-2.899c-5.481 0-11.46 1.524-11.46 1.524l-3.751 15.811s5.507 1.409 10.44 1.409c4.873 0 11.442-1.456 11.442-1.456l1.379-5.751a81.045 81.045 0 0 0-10.012-.643c-.6 0-1.4.021-1.894.052l1.379-6.146c.497-.034 1.756-.052 2.36-.052 8.852.039 15.617 1.897 17.904 2.63zM242.009 364.841c-19.678 13.794-42.498 34.015-46.475 37.964h3.884c6.456 0 8.431-1.003 13.815-4.364 1.034-.646 4.753-2.963 6.015-3.791 23.242-15.177 37.607-20.504 57.395-18.676 16.793 1.551 34.39 9.088 53.935 18.175 19.297 8.976 25.001 11.071 41.004 4.866 30.024-11.645 56.121-27.22 59.419-29.421 0 0-23.125-5.434-53.963-10.205-37.93-5.862-77.447-9.575-119.09-2.042-6.172 1.439-9.792 3.088-15.939 7.494M228.408 350.816c-8.06 7.542-31.551 33.197-47.408 51.989h9.017c1.275-1.272 2.731-2.702 4.113-4.073 20.549-20.333 45.384-42.747 82.857-61.997 0 0-14.884-.796-31.443 3.623-7.374 1.962-11.261 4.429-17.136 10.458" transform="translate(-178.5 -336)"/></g></svg>