<?xml version="1.0" encoding="utf-8"?>
<!-- Generator: Adobe Illustrator 24.1.1, SVG Export Plug-In . SVG Version: 6.00 Build 0)  -->
<svg version="1.1" id="Layer_1" xmlns="http://www.w3.org/2000/svg" xmlns:xlink="http://www.w3.org/1999/xlink" x="0px" y="0px"
	 viewBox="0 0 500 500" style="enable-background:new 0 0 500 500;" xml:space="preserve">
<g>
	<path d="M101.58,268.94c2.37-3.31,3.79-7.57,3.79-13.26s-1.42-9.94-3.79-13.26c-2.37-3.31-5.68-4.73-9.94-4.73
		c-4.26,0-7.57,1.42-9.94,4.73c-2.37,3.31-3.79,7.57-3.79,13.26c0,5.68,1.42,9.94,3.79,13.26c2.37,3.31,5.68,4.73,9.94,4.73
		C95.9,273.67,99.22,271.78,101.58,268.94 M108.21,276.51c-3.79,3.79-9.47,6.16-16.57,6.16c-7.1,0-12.78-1.89-16.57-6.16
		c-5.21-4.73-7.57-11.83-7.57-20.83c0-9.47,2.37-16.1,7.57-20.83c3.79-3.79,9.47-6.15,16.57-6.15c7.1,0,12.78,1.89,16.57,6.15
		c5.21,4.73,7.57,11.84,7.57,20.83C115.79,264.68,113.42,271.78,108.21,276.51"/>
	<path d="M138.51,229.64c0.47,0,1.42,0,1.89,0v8.05c-0.47,0-1.42,0-2.84,0c-1.42,0-2.37,0.47-2.84,0.95
		c-0.47,0.47-0.95,1.42-0.95,1.89v3.31h6.63v7.1h-6.63v30.3h-9.94v-30.3h-4.73v-7.1h5.21v-2.37c0-3.79,0.47-6.63,1.89-8.52
		c1.42-2.37,4.73-3.31,10.41-3.31C137.56,229.64,138.04,229.64,138.51,229.64"/>
	<path d="M162.18,229.64c0.47,0,1.42,0,1.89,0v8.05c-0.47,0-1.42,0-2.84,0c-1.42,0-2.37,0.47-2.84,0.95
		c-0.47,0.47-0.95,1.42-0.95,1.89v3.31h6.63v7.1h-6.63v30.3h-9.94v-30.3h-4.73v-7.1h5.21v-2.37c0-3.79,0.47-6.63,1.89-8.52
		c1.42-2.37,4.73-3.31,10.42-3.31C160.76,229.64,161.71,229.64,162.18,229.64"/>
	<rect x="166.91" y="256.63" width="19.41" height="9.47"/>
	<polygon points="201,230.12 207.63,259.47 209.05,267.52 210.47,259.47 216.62,230.12 227.51,230.12 233.67,259.47 235.09,267.52 
		236.51,259.47 243.61,230.12 254.5,230.12 239.82,280.77 229.88,280.77 223.73,251.42 221.83,241.48 219.94,251.42 214.26,280.77 
		204.32,280.77 189.64,230.12 	"/>
	<path d="M286.69,243.85c1.89,0.95,3.31,1.89,4.73,3.79c0.95,1.42,1.42,2.84,1.89,4.26c0,1.42,0.47,3.79,0.47,7.1v22.25h-9.94
		v-22.72c0-1.89-0.47-3.79-0.95-4.73c-0.95-1.89-2.37-2.84-5.21-2.84c-2.37,0-4.73,0.95-5.68,2.37c-1.42,1.89-1.89,4.26-1.89,7.57
		v20.36h-9.94v-50.66h9.94v17.99c1.42-2.37,2.84-3.79,4.73-4.73c1.89-0.95,3.79-1.42,5.68-1.42
		C282.9,242.43,284.79,242.9,286.69,243.85"/>
	<path d="M302.79,243.37h9.94v37.4h-9.94V243.37z M312.73,239.11h-9.94v-8.99h9.94V239.11z"/>
	<path d="M318.41,250.95v-7.1h5.2v-10.42h9.47v10.42h6.15v7.1h-6.15v19.88c0,1.42,0,2.37,0.47,2.84c0.47,0.47,1.42,0.47,3.79,0.47
		c0.47,0,0.47,0,0.95,0c0.47,0,0.47,0,0.95,0v7.1h-4.73c-4.73,0-7.58-0.47-9.47-2.37c-0.95-0.95-1.42-2.84-1.42-5.21v-23.2
		L318.41,250.95z"/>
	<path d="M355.81,252.84c-1.42,1.42-2.36,3.31-2.84,5.68h17.04c0-2.37-0.95-4.73-2.84-6.15c-1.42-1.42-3.31-1.89-5.68-1.89
		C359.12,250.47,357.23,251.42,355.81,252.84 M370.48,244.32c2.84,0.95,4.73,2.84,6.63,5.68c1.42,2.37,2.37,4.73,2.84,7.57
		c0.47,1.89,0.47,4.26,0.47,7.57h-27.46c0,3.79,1.42,6.63,3.79,8.05c1.42,0.95,3.32,1.42,5.21,1.42c2.37,0,4.26-0.48,5.21-1.9
		c0.95-0.47,1.42-1.42,1.89-2.36H379c-0.47,2.36-1.42,4.26-3.79,6.63c-3.31,3.79-8.05,5.68-14.2,5.68c-5.21,0-9.47-1.42-13.26-4.73
		c-3.79-2.84-5.68-8.05-5.68-15.15c0-6.63,1.89-11.36,5.21-15.15c3.31-3.31,8.05-5.21,13.26-5.21
		C364.8,242.43,367.64,242.9,370.48,244.32"/>
	<polygon points="402.2,217.33 402.2,222.07 394.15,222.07 394.15,244.79 388.47,244.79 388.47,222.07 379.95,222.07 379.95,217.33 
			"/>
	<path d="M423.98,217.33h8.52v27.46h-5.68v-18.46c0-0.47,0-1.42,0-2.37c0-0.95,0-1.89,0-2.37l-5.21,23.2h-5.68l-5.21-23.2
		c0,0.47,0,1.42,0,2.37s0,1.89,0,2.37v18.46h-5.21v-27.46h8.52l5.21,21.78L423.98,217.33z"/>
</g>
</svg>
