<?xml version="1.0" encoding="utf-8"?>
<!-- Generator: Adobe Illustrator 19.0.0, SVG Export Plug-In . SVG Version: 6.00 Build 0)  -->
<svg version="1.1" id="Layer_1" xmlns="http://www.w3.org/2000/svg" xmlns:xlink="http://www.w3.org/1999/xlink" x="0px" y="0px"
	 viewBox="-229 31 500 500" style="enable-background:new -229 31 500 500;" xml:space="preserve">
<style type="text/css">
	.st0{fill:#231F20;}
</style>
<g>
	<path class="st0" d="M-116,253.1l-48,0.1l5.6,6.1v44.6l-4.1,5.8h25.4l-4.6-5.4l-0.5-16l24.5,0.1c7.4-2.4,15-7.5,15.4-17.7
		C-102.4,260.7-108.7,254.4-116,253.1z M-124.3,284.8l-18.8-0.1v-28.6V256h18.4c6.3,2.7,7.7,8.4,7.8,14.9
		C-116.8,278.9-120,281.5-124.3,284.8z"/>
	<path class="st0" d="M-42.5,309.5l21.8-0.2l-19.9-16.6h-16.6L-63,288l18.7,0.1c7.4-2.4,15-7.5,15.4-17.7
		c-0.1-10-6.4-16.3-13.7-17.6l-48,0.1l5.6,6.1v44.5l-4.1,5.8h25.4l-4.6-5.4l-0.5-16h0.1L-42.5,309.5z M-69.7,284.3v-28.6v-0.1h18.4
		c6.3,2.7,7.7,8.4,7.8,14.9c0.1,8-3.1,10.6-7.4,13.9L-69.7,284.3z"/>
	<path class="st0" d="M58,309c-2.5-1.7-6.2-1.3-7.4-5.2l-28.5-51H0.2l3.5,1.2l8.3,10.6v2.7l-19.6,39.8l-5.2,1.6l11.9,0.3l-1.9-1.8
		c-1-1.5,0.3-2.4,0.5-3.6L2.9,293l24.2-0.1l7.1,11l0.3,3.8l-4.1,1.3H58z M4.5,289.5l10.1-18.4l10.5,18.3L4.5,289.5z"/>
	<path class="st0" d="M206,309.1c-2.5-1.7-6.2-1.3-7.4-5.2l-28.5-51h-21.9l3.5,1.5L160,265v2.4l-19.6,39.8l-5.2,1.6l11.9,0.3
		l-1.9-1.8c-1-1.5,0.3-2.4,0.5-3.6l5.2-10.6l24.2-0.1l7.1,11l0.3,3.8l-4.1,1.3H206z M152.5,289.6l10.1-18.4l10.5,18.3L152.5,289.6z"
		/>
	<path class="st0" d="M65.6,252.3l39,0.2c12.6,2.8,20.5,10.2,23,23.2l-0.1,10.1c-2.3,11.5-9.8,19.4-23,23.5l-39.1,0.1v-1.2
		c5.9-0.4,6.4-1.1,6.4-4.5v-45.9c-0.1-2.5-0.6-4.1-6.3-4.3L65.6,252.3z M87.7,256.2v49.7c5.1,0,9.6,0.5,12.1-0.8
		c5.7-2.5,8.4-6.4,8.6-10l-0.1-29.3c0-4.7-5.3-8-8.3-8.9C97.8,256.1,93.4,256.1,87.7,256.2z"/>
</g>
</svg>
