<?xml version="1.0" encoding="utf-8"?>
<!-- Generator: Adobe Illustrator 22.0.1, SVG Export Plug-In . SVG Version: 6.00 Build 0)  -->
<svg version="1.1" id="Livello_1" xmlns="http://www.w3.org/2000/svg" xmlns:xlink="http://www.w3.org/1999/xlink" x="0px" y="0px"
	 viewBox="0 0 196.5 27.8" style="enable-background:new 0 0 196.5 27.8;" xml:space="preserve">
<g>
	<path d="M9.7,16.9c0,0.5,0.1,1,0.3,1.5c0.2,0.4,0.5,0.8,0.9,1c0.4,0.3,0.8,0.5,1.2,0.6c0.5,0.1,1,0.2,1.5,0.2c0.4,0,0.8,0,1.1-0.1
		c0.4-0.1,0.8-0.2,1.1-0.3c0.3-0.2,0.6-0.4,0.9-0.7c0.2-0.3,0.3-0.7,0.3-1.1c0-0.4-0.2-0.9-0.5-1.2c-0.3-0.3-0.7-0.6-1.2-0.7
		c-0.5-0.2-1.1-0.4-1.7-0.5L11.7,15c-0.6-0.2-1.3-0.4-1.9-0.6c-0.6-0.2-1.2-0.5-1.7-0.9c-0.5-0.4-0.9-0.8-1.2-1.4
		c-0.3-0.6-0.5-1.4-0.5-2.1c0-0.8,0.2-1.6,0.6-2.4C7.5,7,8,6.4,8.6,6c0.7-0.4,1.4-0.8,2.1-1c0.8-0.2,1.6-0.3,2.3-0.3
		c0.9,0,1.8,0.1,2.7,0.3c0.8,0.2,1.6,0.5,2.2,1c0.6,0.5,1.2,1.1,1.5,1.8c0.4,0.8,0.6,1.7,0.6,2.6h-3.7c0-0.5-0.1-0.9-0.3-1.3
		c-0.2-0.3-0.4-0.6-0.7-0.8C15,8,14.6,7.9,14.2,7.8c-0.4-0.1-0.9-0.1-1.3-0.1c-0.3,0-0.6,0-1,0.1c-0.3,0.1-0.6,0.2-0.9,0.3
		c-0.3,0.2-0.5,0.4-0.6,0.6c-0.2,0.3-0.3,0.6-0.3,0.9c0,0.3,0.1,0.6,0.2,0.9c0.2,0.3,0.5,0.5,0.8,0.6c0.5,0.2,1.1,0.4,1.6,0.5
		c0.7,0.2,1.6,0.4,2.7,0.7c0.2,0.1,0.5,0.1,0.9,0.2c0.3,0.1,0.7,0.2,1.1,0.4c0.4,0.2,0.7,0.4,1.2,0.6c0.4,0.3,0.8,0.6,1.1,0.9
		c0.3,0.4,0.6,0.8,0.8,1.3c0.2,0.6,0.3,1.2,0.3,1.8c0,0.8-0.2,1.5-0.5,2.2c-0.3,0.7-0.8,1.3-1.4,1.8c-0.7,0.5-1.5,0.9-2.3,1.2
		c-1,0.3-2.1,0.4-3.2,0.4c-1,0-1.9-0.1-2.8-0.4c-0.9-0.2-1.7-0.6-2.4-1.1c-0.7-0.5-1.3-1.2-1.7-2c-0.5-0.9-0.7-1.9-0.6-2.8L9.7,16.9
		L9.7,16.9z"/>
	<path d="M27.2,5.1h4l6.6,17.6h-4l-1.3-4h-6.5l-1.4,4h-4L27.2,5.1z M26.9,15.9h4.6l-2.2-6.5h-0.1L26.9,15.9z"/>
	<path d="M38.8,5.1h3.9v17.6h-3.9V5.1z"/>
	<path d="M60.3,5.1h-3.6v11.9h-0.1L49.3,5.1h-3.9v17.6H49V10.9h0.1l7.4,11.8h3.8V8.3h4.9v14.4H69V8.3h5.3V5.1H60.3z"/>
	<path d="M81.6,5.1h3.9v14.4h8.6v3.3H81.6V5.1z"/>
	<path d="M101,5.1h4l6.6,17.6h-4l-1.3-4h-6.6l-1.4,4h-4L101,5.1z M100.7,15.9h4.6L103,9.5H103L100.7,15.9z"/>
	<path d="M126.9,16c0,2.4-0.6,4.2-2,5.3c-1.6,1.3-3.5,1.9-5.6,1.8c-2,0.1-4-0.5-5.6-1.8c-1.3-1.2-2-2.9-2-5.3V5.1h3.9V16
		c0,0.5,0,0.9,0.1,1.4c0.1,0.4,0.3,0.9,0.5,1.2c0.3,0.4,0.7,0.7,1.1,0.9c0.6,0.2,1.2,0.3,1.9,0.3c1,0.1,2.1-0.2,2.9-0.9
		c0.6-0.8,0.9-1.9,0.8-2.9V5.1h3.9L126.9,16L126.9,16z"/>
	<path d="M129.3,5.1h9.5c0.7,0,1.5,0.1,2.1,0.4c0.6,0.2,1.2,0.6,1.7,1.1c0.4,0.4,0.8,1,1,1.5c0.2,0.6,0.4,1.2,0.4,1.9
		c0,0.9-0.2,1.9-0.6,2.7c-0.5,0.8-1.2,1.4-2.1,1.7v0.1c0.4,0.1,0.8,0.3,1.2,0.6c0.3,0.3,0.6,0.6,0.7,1c0.2,0.4,0.3,0.8,0.4,1.2
		c0.1,0.4,0.2,0.9,0.2,1.3c0,0.3,0.1,0.6,0.1,1c0,0.4,0,0.8,0.1,1.2c0,0.4,0.1,0.8,0.2,1.1c0.1,0.3,0.2,0.6,0.4,0.9h-3.9
		c-0.1-0.3-0.2-0.6-0.3-0.9c-0.1-0.3-0.1-0.7-0.2-1.1s-0.1-0.7-0.1-1.1c0-0.4,0-0.8-0.1-1.1c-0.1-0.8-0.4-1.5-0.9-2
		c-0.6-0.5-1.3-0.7-2.1-0.6h-3.9v6.9h-3.8V5.1z M133.2,13h4.3c0.7,0,1.4-0.2,2-0.6c0.5-0.5,0.8-1.2,0.7-1.9c0.1-0.7-0.2-1.4-0.7-1.9
		c-0.6-0.4-1.3-0.6-2-0.6h-4.3V13z"/>
	<path d="M146.4,5.1h13.2v3.3h-9.3v3.8h8.5v3h-8.5v4.3h9.5v3.3h-13.4V5.1z"/>
	<path d="M176.5,5.1h-3.6v11.9h-0.1l-7.4-11.9h-3.8v17.6h3.6V10.9h0.1l7.3,11.8h3.9V8.3h4.9v14.4h3.8V8.3h5.3V5.1H176.5z"/>
</g>
</svg>
