<?xml version="1.0" encoding="utf-8"?>
<!-- Generator: Adobe Illustrator 19.0.0, SVG Export Plug-In . SVG Version: 6.00 Build 0)  -->
<svg version="1.1" id="Layer_1" xmlns="http://www.w3.org/2000/svg" xmlns:xlink="http://www.w3.org/1999/xlink" x="0px" y="0px"
	 viewBox="0 0 500 500" style="enable-background:new 0 0 500 500;" xml:space="preserve">
<style type="text/css">
	.st0{fill:#B50938;}
</style>
<g id="XMLID_1_">
	<line id="XMLID_3_" class="st0" x1="87.8" y1="223.6" x2="87.8" y2="223.6"/>
	<path id="XMLID_4_" class="st0" d="M324.7,250.4c-1.4,0-3-0.4-4.6-1.3l-0.7-0.4l-3.5,7.7l0.6,0.3c3,1.6,5.7,2.3,9,2.3
		c6.2,0,9.8-3,12.8-10.8l15-38.7h-10.5c0,0-7.7,22.2-9,25.7c-1.3-3.5-9.8-25.7-9.8-25.7h-10.7c0,0,15.3,36.7,15.6,37.4
		C327.7,249.8,326.5,250.4,324.7,250.4"/>
	<path id="XMLID_5_" class="st0" d="M227.7,240.7l0.5-0.6L222,234l-0.6,0.6c-2.9,3-5.7,4.3-8.9,4.3c-5.8,0-10.2-4.7-10.2-11v-0.1
		c0-6.1,4.3-10.8,9.7-10.8c4.2,0,6.8,2.1,8.9,4.3l0.6,0.6l6.3-6.8l-0.5-0.5c-4.1-4.5-8.8-6.6-15.2-6.6c-11.1,0-19.8,8.7-19.8,19.9
		v0.1c0,11.1,8.7,19.7,19.7,19.7C220.2,247.8,224.5,244.2,227.7,240.7"/>
	<path id="XMLID_8_" class="st0" d="M250.5,247.7c11.5,0,20.4-8.7,20.4-19.9v-0.1c0-11.1-8.9-19.8-20.3-19.8
		c-11.4,0-20.3,8.8-20.3,19.9v0.1C230.3,239,239.1,247.7,250.5,247.7 M240.2,227.7c0-6.3,4.3-10.9,10.2-10.9c6,0,10.5,4.7,10.5,11
		v0.1c0,5.4-3.5,10.8-10.3,10.8c-5.8,0-10.4-4.8-10.4-11"/>
	<path id="XMLID_9_" class="st0" d="M175.9,209.2l0,0.8v20.9c0,4.3-2.8,7.2-6.7,7.2c-3.9,0-6.9-3.2-6.9-7.3v-21.6h-10.5v21.7
		c0,9.5,7.6,15.7,17.3,15.7c3,0,5.7-1.1,8.2-2.3l0.7-0.4l0.1,1.9v0.7h8.4v-37.4H175.9"/>
	<path id="XMLID_10_" class="st0" d="M287.1,246.6l0-0.8v-20.9c0-4.3,2.8-7.2,6.7-7.2c3.9,0,6.9,3.2,6.9,7.3v21.6h10.5v-21.7
		c0-9.5-7.6-15.7-17.3-15.7c-3,0-5.7,1.1-8.2,2.3l-0.7,0.4l-0.1-1.9v-0.8h-8.4v37.4H287.1"/>
	<path id="XMLID_13_" class="st0" d="M134.8,209.8v1.6c-3-1.7-6.6-3.5-10.6-3.5c-11.6,0-20.7,8.1-20.7,19.5v0.1
		c0,11.3,9.1,19.3,20.6,19.3c3.9,0,7.6-1.8,10.7-3.6v2.6h9.4v-37h-9.4V209.8z M124.6,238.7c-6.3,0-11.4-5-11.4-11.2
		c0-6.2,5.1-11.2,11.4-11.2c6.3,0,11.4,5,11.4,11.2C136,233.6,130.9,238.7,124.6,238.7"/>
	<path id="XMLID_14_" class="st0" d="M85.2,214.4c2.6,0,6.1,1.2,10.5,3.7l0.4,0.2l3.9-7.1l-0.3-0.2c-4.3-2.7-9.7-4.2-14.4-4.2
		c-7.3,0-14.6,3.9-14.6,12.6v0.1c0,7.1,6.5,9.9,12.2,11.6c3.8,1.1,7.5,2.4,7.5,5.2v0.1c0,1.2-0.5,4.4-5.6,4.4c-3.5,0-8-2.1-12.6-5.2
		l-0.3-0.2l-4.4,6.8l0.3,0.2c4.9,3.6,10.8,6.1,16.7,6.1c9.9,0,15.3-4.8,15.3-12.6v-0.8c0-5-4-8.7-12.2-11.4h0h0l-1-0.3
		c-3.8-1.3-6.5-2.2-6.5-5.1v-0.2C80.1,216.3,81.7,214.4,85.2,214.4"/>
	<path id="XMLID_19_" class="st0" d="M432,252.5L432,252.5c-3.1-2.1-3.1-2.1-5.2-3.4c-20.1-12.2-30.5-13.6-40.3-10.4
		c-7.6,2.5-20.6,12.9-20.6,12.9c-11.9,7.9-23.9,21.1-52.2,19.5c-26.3-1.4-80.4-15.5-81-15.7c-0.7-0.2-1.3,0.3-1.1,1.1
		c0.2,0.6,1.5,3.5,1.5,3.5c0.2,0.4,0.5,0.5,0.7,0.6c21.5,8.6,87.3,32.7,110.5,32.7c27.7,0,50.6-38.4,75.2-38.4
		c7.6,0,9.6,0.3,10.7,0.3c1.1,0.1,2-0.2,2.3-1.2C432.4,253.9,432.8,253.1,432,252.5 M360.6,277.1c-0.3,1.6-1.2,2.9-2.5,3.8
		c-1.3,0.9-2.9,1.2-4.5,0.9c-1.6-0.3-2.9-1.2-3.8-2.5c-1.8-2.7-1.1-6.4,1.7-8.2c2.7-1.8,6.4-1.1,8.2,1.7
		C360.6,274,360.9,275.5,360.6,277.1 M375.5,269.3c-2.7,1.8-6.4,1.1-8.2-1.7c-1.8-2.7-1.1-6.4,1.7-8.2c2.7-1.8,6.4-1.1,8.2,1.6
		c0.7,1,1,2.1,1,3.3C378.1,266.2,377.2,268.1,375.5,269.3 M395.4,253.9c-0.3,1.6-1.2,2.9-2.5,3.8c-1.3,0.9-2.9,1.2-4.4,0.9
		c-1.6-0.3-2.9-1.2-3.8-2.5c-0.9-1.3-1.2-2.9-0.9-4.4c0.3-1.6,1.2-2.9,2.5-3.8c1.3-0.9,2.9-1.2,4.4-0.9c1.5,0.3,2.9,1.2,3.8,2.5
		C395.4,250.8,395.7,252.3,395.4,253.9"/>
	<path id="XMLID_24_" class="st0" d="M363.5,209.9c4,0,7.3,3.1,7.3,7.2c0,4.1-3.3,7.3-7.3,7.3c-3.9,0-7.3-3.1-7.3-7.2
		C356.3,213,359.6,209.9,363.5,209.9 M363.5,223.3c3.4,0,6.1-2.7,6.1-6.2c0-3.5-2.7-6.1-6.1-6.1c-3.4,0-6.1,2.7-6.1,6.2
		C357.4,220.6,360.1,223.3,363.5,223.3 M360.8,212.9h3.1c2,0,2.9,0.7,2.9,2.4c0,1.5-1,2.1-2.2,2.3l2.4,3.7h-1.3l-2.3-3.6H362v3.6
		h-1.2V212.9z M362,216.7h1.4c1.2,0,2.2-0.1,2.2-1.4c0-1.2-1-1.3-1.9-1.3H362"/>
</g>
</svg>
